#!OML:ASF F:\VICON\USERDATA\INSTALL\rory3\rory3.ASF
:FULLY-SPECIFIED
:DEGREES
4191
root 10.2149 17.7775 -4.82599 -716.772 63.7119 9.08913
lowerback 11.5216 0.740347 1.19656
upperback 1.00444 1.24026 1.21816
thorax -5.41301 0.610539 0.400935
lowerneck -18.8247 -2.52341 -10.5897
upperneck 34.8622 -0.788392 4.31962
head 15.5431 -0.888583 3.6216
rclavicle -2.20154e-014 -7.95139e-016
rhumerus -38.1025 -21.416 -67.4732
rradius 34.5183
rwrist 4.11175
rhand -19.5953 9.67663
rfingers 7.12502
rthumb 6.73053 -20.1964
lclavicle -2.20154e-014 -7.95139e-016
lhumerus -32.3685 2.44043 85.3722
lradius 32.8727
lwrist -7.30297
lhand -21.2043 27.3173
lfingers 7.12502
lthumb 5.17708 57.234
rfemur 2.14329 1.82879 4.42632
rtibia 32.4514
rfoot -6.06213 -20.4841
rtoes 14.0027
lfemur -5.69655 2.02015 -17.2371
ltibia 19.0477
lfoot -3.04001 4.3121
ltoes -11.5017
4192
root 10.2743 17.7963 -4.90355 -716.67 63.9593 9.15242
lowerback 11.6052 0.786261 1.34894
upperback 1.01844 1.3242 1.23517
thorax -5.44193 0.648721 0.318331
lowerneck -18.8346 -2.54854 -10.657
upperneck 34.8855 -0.784544 4.29771
head 15.5584 -0.897772 3.62615
rclavicle 2.6339e-014 -1.59028e-015
rhumerus -38.1896 -21.2496 -67.6349
rradius 34.5748
rwrist 4.54978
rhand -19.7148 9.58847
rfingers 7.12502
rthumb 6.61519 -20.2882
lclavicle 2.6339e-014 -1.59028e-015
lhumerus -32.2361 1.74619 85.6387
lradius 33.3965
lwrist -6.8544
lhand -21.3821 27.7882
lfingers 7.12502
lthumb 5.00538 57.709
rfemur 1.45607 1.86915 4.28378
rtibia 33.5583
rfoot -4.95113 -20.8428
rtoes 16.5876
lfemur -5.56553 2.32479 -17.5764
ltibia 18.7348
lfoot -3.07454 3.92045
ltoes -11.912
4193
root 10.3318 17.8113 -4.98718 -716.024 64.2055 9.83096
lowerback 11.7367 0.842647 1.29575
upperback 1.01461 1.38918 1.13805
thorax -5.51784 0.680179 0.234039
lowerneck -18.8284 -2.55501 -10.6596
upperneck 34.9532 -0.784106 4.29856
head 15.5902 -0.896836 3.63067
rclavicle -7.35503e-014 -7.95139e-015
rhumerus -38.1848 -20.9789 -67.8594
rradius 34.6369
rwrist 4.53614
rhand -19.4281 9.40251
rfingers 7.12502
rthumb 6.89195 -20.4653
lclavicle -7.35503e-014 -7.95139e-015
lhumerus -32.1435 0.975961 85.8004
lradius 34.0185
lwrist -6.063
lhand -21.4543 27.7192
lfingers 7.12502
lthumb 4.93573 57.6417
rfemur 0.706201 1.81933 3.76914
rtibia 34.7348
rfoot -3.78079 -20.6552
rtoes 18.9062
lfemur -5.39366 2.5029 -18.2413
ltibia 18.3242
lfoot -3.07223 3.5831
ltoes -12.1842
4194
root 10.3914 17.8239 -5.06235 -715.305 64.5015 10.64
lowerback 11.8656 0.865319 1.12853
upperback 1.02534 1.39612 1.0737
thorax -5.58069 0.686481 0.25768
lowerneck -18.8598 -2.56051 -10.7038
upperneck 35.0582 -0.734092 4.23081
head 15.6458 -0.891483 3.62357
rclavicle 3.00165e-014 2.38542e-015
rhumerus -38.0535 -20.4047 -68.1733
rradius 34.5677
rwrist 4.29505
rhand -19.4016 9.58028
rfingers 7.12502
rthumb 6.91747 -20.2867
lclavicle 3.00165e-014 2.38542e-015
lhumerus -32.0637 0.53671 85.8513
lradius 34.6245
lwrist -5.50042
lhand -21.1098 27.266
lfingers 7.12502
lthumb 5.2683 57.1805
rfemur 0.0508324 1.77784 3.2619
rtibia 35.9732
rfoot -2.49582 -20.6524
rtoes 21.0402
lfemur -5.08751 2.63584 -18.9361
ltibia 17.8087
lfoot -3.11569 3.15659
ltoes -12.4189
4195
root 10.4488 17.8349 -5.12938 -714.817 64.8155 11.232
lowerback 12.0472 0.903566 1.02656
upperback 1.05068 1.43509 1.03954
thorax -5.65676 0.707603 0.270031
lowerneck -18.8777 -2.56636 -10.7522
upperneck 35.0529 -0.697583 4.17965
head 15.6454 -0.88813 3.61683
rclavicle 4.52235e-014 1.74931e-014
rhumerus -38.0263 -19.8596 -68.4905
rradius 34.5563
rwrist 4.33559
rhand -19.7452 9.80903
rfingers 7.12502
rthumb 6.58584 -20.0686
lclavicle 4.52235e-014 1.74931e-014
lhumerus -31.8311 0.43084 85.8148
lradius 34.9779
lwrist -5.48098
lhand -20.8647 26.8577
lfingers 7.12502
lthumb 5.50494 56.7662
rfemur -0.568493 1.69396 2.89484
rtibia 37.2476
rfoot -1.41599 -20.5501
rtoes 23.4904
lfemur -4.67036 2.72235 -19.4691
ltibia 17.1881
lfoot -3.10974 2.67313
ltoes -11.9393
